P3
4 3
255

255 0 0
255 0 0
255 0 0
255 0 0

0 120 0
0 120 0
0 120 0
0 120 0

0 0 0
75 97 245
0 0 255
192 192 192
